<?xml version="1.0" encoding="utf-8"?>
<!-- Generator: Adobe Illustrator 25.4.1, SVG Export Plug-In . SVG Version: 6.00 Build 0)  -->
<svg class="featured-item-icon" version="1.1" id="Layer_1" xmlns="http://www.w3.org/2000/svg" xmlns:xlink="http://www.w3.org/1999/xlink" x="0px" y="0px"
	 viewBox="0 0 107.8 137.1" style="enable-background:new 0 0 107.8 137.1;" xml:space="preserve">
<style type="text/css">
	.st0{fill:#B51318;}
	.st1{fill:#D2161C;}
	.st2{fill:#FFFFFF;}
	.st3{fill:#E9E9E9;}
	.st4{fill:#EC1D22;}
	.st5{fill:#EB1E23;}
</style>
<path class="st0" d="M35.1,101.3c-1.3-0.4-2.7-0.6-4-0.4c-3.9,0.5-7.5-1.8-8.9-5.5c-0.2-0.5-0.4-1-0.7-1.5L21,93L8.8,122.4
	c-0.7,1.7,0.1,3.7,1.8,4.4c0.4,0.2,0.9,0.3,1.3,0.3c0.3,0,0.7,0,1-0.1l12.5-3.8c0.3-0.1,0.6-0.1,0.9-0.1l0.1,0l0.3-0.1l8.9-21.4
	L35.1,101.3z"/>
<path class="st1" d="M52.1,105c-0.9,0.2-1.8,0.5-2.6,0.9c-3.5,1.8-7.7,1-10.3-1.9c-1.1-1.3-2.6-2.2-4.2-2.8l-0.4-0.1l-9,21.8
	l0.7,0.1c0.8,0.1,1.5,0.5,1.9,1.2l6.1,11.5c0.4,0.8,1.1,1.4,2,1.6c0.3,0.1,0.7,0.1,1,0.1c0.5,0,1.1-0.1,1.6-0.4
	c0.7-0.4,1.2-1,1.5-1.7L53,104.9L52.1,105z"/>
<path class="st0" d="M80.3,122.6l-8.7-21l-0.5,0.3c-1,0.5-1.9,1.2-2.6,2.1c-2.6,3-6.8,3.7-10.3,1.9c-0.8-0.4-1.7-0.7-2.6-0.9
	l-0.9-0.2l12.7,30.6c0.3,0.8,1,1.5,1.8,1.8c0.4,0.2,0.9,0.3,1.3,0.3c0.4,0,0.9-0.1,1.3-0.3c0.7-0.3,1.3-0.8,1.7-1.5l6.1-11.5
	c0.1-0.1,0.1-0.2,0.2-0.3l0.4-0.4l1.1-0.9H80.3z"/>
<path class="st1" d="M99,122.4L86.8,93l-0.5,0.9c-0.3,0.6-0.5,1-0.7,1.5c-1.3,3.7-5,6-8.9,5.5h0c-1.9-0.2-3.9,0.2-5.6,1.1l-0.4,0.2
	l9.1,21.9l0.5-0.5c0.6-0.5,1.4-0.6,2.2-0.4l12.5,3.8c0.3,0.1,0.7,0.2,1,0.2c1.4,0,2.8-0.9,3.2-2.4C99.4,124,99.3,123.2,99,122.4z"/>
<path class="st2" d="M67,60l3.7,12.8c1.8-3.2,3.2-6.7,4-10.4c0.8-3.6,1.1-7.2,0.9-10.7l-8,6.2C67,58.5,66.8,59.3,67,60z"/>
<path class="st2" d="M45.6,15.4c0.4-0.1,0.8-0.2,1.2-0.2C46.4,15.2,46,15.3,45.6,15.4z"/>
<path class="st2" d="M47.7,15c0.4-0.1,0.8-0.1,1.2-0.2C48.5,14.9,48.1,14.9,47.7,15z"/>
<path class="st2" d="M50.2,14.6c-0.1,0-0.3,0-0.4,0C50,14.7,50.1,14.7,50.2,14.6C50.2,14.7,50.2,14.7,50.2,14.6z"/>
<path class="st2" d="M46.8,92.3c-0.2,0-0.4-0.1-0.5-0.1C46.4,92.2,46.6,92.2,46.8,92.3z"/>
<path class="st2" d="M50.2,92.8C50.2,92.8,50.2,92.8,50.2,92.8c0,0-0.1,0-0.1,0C50.1,92.7,50.2,92.7,50.2,92.8z"/>
<path class="st2" d="M48.6,92.6c-0.1,0-0.3,0-0.4-0.1C48.3,92.5,48.4,92.5,48.6,92.6z"/>
<path class="st3" d="M62.6,15.5c-2.9-0.7-5.8-1-8.7-1l0,0c-1.2,0-2.4,0.1-3.7,0.2c-0.1,0-0.3,0-0.4,0c-0.3,0-0.6,0.1-0.9,0.1
	c-0.4,0.1-0.8,0.1-1.2,0.2c-0.3,0-0.6,0.1-0.9,0.2c-0.4,0.1-0.8,0.1-1.2,0.2c-0.2,0-0.3,0.1-0.5,0.1c0,0,0,0,0,0
	c14.9,3.4,25.9,14.9,29.3,28.8l0,0c0,0,0,0,0,0l4.9,0.2h0c0.6,0,1.1,0.3,1.5,0.7c0.7,0.8,0.5,2.1-0.3,2.7l-2.5,2c0,0,0,0,0,0
	l-2.4,1.9c0.2,3.5-0.1,7.1-0.9,10.7c-0.8,3.7-2.2,7.2-4,10.4l0.8,2.9c0,0.1,0.1,0.3,0.1,0.4c0,0,0,0,0,0c0,0.4-0.1,0.8-0.3,1.2
	c-0.3,0.4-0.6,0.6-1,0.8c0,0,0,0,0,0c-0.1,0-0.1,0-0.2,0c0,0,0,0,0,0c-0.5,0.1-1,0-1.4-0.3l-0.8-0.5c-5.5,7.2-13.4,12.5-22.6,14.6
	c0,0,0,0,0,0c0.4,0.1,0.7,0.1,1.1,0.2c0.2,0,0.4,0.1,0.5,0.1c0.5,0.1,0.9,0.2,1.4,0.2c0.1,0,0.3,0,0.4,0.1c0.5,0.1,1,0.1,1.5,0.2
	c0,0,0.1,0,0.1,0c19.3,1.8,37.5-10.9,41.9-30.3C97,41.3,83.7,20.3,62.6,15.5z"/>
<path class="st4" d="M61.3,42.6l-5.6-15.3c-0.4-1-1.5-1.5-2.5-1.2c-0.5,0.2-1,0.6-1.2,1.2l-5.6,15.3c-0.3,0.7-1,1.2-1.7,1.3
	l-16.3,0.6c-1.1,0-1.9,0.9-1.9,2c0,0.6,0.3,1.1,0.7,1.5L40.1,58c0.6,0.5,0.9,1.3,0.7,2.1l-4.5,15.7c-0.3,1,0.3,2.1,1.3,2.4
	c0.5,0.2,1.1,0.1,1.6-0.3l13.5-9.1c0.7-0.4,1.5-0.4,2.2,0l0,0l12.8,8.6l0.8,0.5c0.4,0.3,0.9,0.4,1.4,0.3c-0.5,0.1-1,0-1.4-0.3
	l-0.8-0.5c1.1-1.4,2-2.9,2.9-4.5l0.8,2.8c0,0.1,0.1,0.3,0.1,0.4c0,0,0,0,0,0c0-0.1,0-0.3-0.1-0.4l-0.8-2.9L67,60
	c-0.2-0.8,0-1.6,0.7-2.1l8-6.2l2.4-1.9c0,0,0,0,0,0l-2.4,1.9c-0.1-2.5-0.5-5-1.1-7.5l0,0l-11.4-0.4C62.3,43.9,61.6,43.4,61.3,42.6z"
	/>
<path class="st4" d="M70,78.2c0.1,0,0.1,0,0.2,0c0,0,0,0,0,0C70.1,78.1,70,78.1,70,78.2z"/>
<path class="st1" d="M71.5,75.7l-0.8-2.8c-0.9,1.5-1.8,3-2.9,4.5l0.8,0.5c0.4,0.3,1,0.4,1.4,0.3c0,0,0,0,0,0c0.1,0,0.1,0,0.2-0.1
	c0.4-0.1,0.8-0.4,1-0.8c0.2-0.4,0.4-0.8,0.3-1.2C71.5,76,71.5,75.9,71.5,75.7z"/>
<path class="st1" d="M75.6,51.8l2.4-1.9l2.5-2c0.8-0.7,1-1.9,0.3-2.7c-0.4-0.5-0.9-0.7-1.5-0.7h0l-4.9-0.2c0,0,0,0,0,0
	C75.1,46.7,75.5,49.2,75.6,51.8z"/>
<g>
	<path class="st5" d="M105.7,43.4c-1.9-2-2.7-4.8-2.1-7.5c0.9-4.3-1.2-8.6-5.2-10.4c-2.5-1.2-4.3-3.5-4.7-6.3
		c-0.7-4.3-4.2-7.6-8.6-7.9c-2.8-0.2-5.3-1.7-6.7-4.1C76.1,3.4,71.6,1.7,67.4,3c-2.7,0.8-5.5,0.3-7.7-1.4l-0.1-0.1h0
		C56.2-1.2,51.4-1.2,48,1.5C45.9,3.3,43,3.8,40.3,3c-4.2-1.3-8.7,0.4-10.9,4.2c-1.4,2.4-3.9,3.9-6.7,4.1c-4.4,0.3-7.9,3.5-8.6,7.9
		c-0.4,2.7-2.2,5.1-4.7,6.3c-4,1.9-6.1,6.2-5.2,10.4c0.6,2.7-0.2,5.5-2.1,7.5c-3,3.2-3.5,8-1.1,11.6c1.5,2.3,1.8,5.2,0.7,7.8
		c-1.7,4.1-0.4,8.7,3.2,11.2c2.3,1.6,3.6,4.2,3.5,7c-0.1,4.4,2.8,8.2,7,9.3c2.2,0.6,4,2,5.1,3.9c0.3,0.5,0.5,0.9,0.6,1.3
		c1.5,4.1,5.6,6.6,9.9,6.1c1.2-0.1,2.4,0,3.6,0.4c1.5,0.5,2.8,1.3,3.7,2.5c1.8,2.1,4.4,3.2,7.1,3.2c1.5,0,3-0.4,4.4-1.1
		c0.7-0.4,1.5-0.6,2.3-0.8c1.1-0.2,2.1-0.2,3.2,0c0.8,0.2,1.6,0.4,2.3,0.8c3.9,2,8.6,1.2,11.5-2.1c0.6-0.7,1.4-1.4,2.3-1.9
		c1.5-0.8,3.3-1.2,5-1c4.4,0.5,8.4-2,9.9-6.1c0.2-0.4,0.4-0.9,0.6-1.4c1.1-2,3-3.4,5.1-3.9c4.2-1.1,7.1-4.9,7-9.3
		c-0.1-2.8,1.2-5.4,3.5-7c3.6-2.6,4.9-7.2,3.2-11.2c-1.1-2.6-0.8-5.5,0.7-7.8C109.1,51.4,108.7,46.6,105.7,43.4z M46,91.6
		c-0.2,0-0.5-0.1-0.7-0.2v0C29,87.7,16.9,74,15.3,57.3c-1.8-19.3,11-37.1,30-41.4l0.5-0.1c0.4-0.1,0.8-0.2,1.2-0.2
		c0.3-0.1,0.6-0.1,0.9-0.2c0.4-0.1,0.8-0.1,1.2-0.2l0.1,0c0.3,0,0.5-0.1,0.8-0.1l0.3,0l0,0l0.1,0c1.3-0.1,2.5-0.2,3.6-0.2
		c2.9,0,5.8,0.3,8.7,1c10.1,2.3,18.7,8.4,24.2,17.2c5.5,8.8,7.3,19.1,5,29.2c-4,17.7-19.9,30.1-37.7,30.1c-1.2,0-2.4-0.1-3.7-0.2
		l-0.1,0l-0.1,0l0,0c-0.5,0-1-0.1-1.5-0.2L48.2,92c-0.4-0.1-0.9-0.1-1.3-0.2L46,91.6z"/>
</g>
</svg>
